# xmcd CD database file
#
# Track frame offsets:
#	150
#	20913
#	41523
#	62098
#	80578
#	102985
#	124923
#	144940
#	158670
#	177735
#	194620
#	212225
#	231365
#
# Disc length: 3305 seconds
#
# Revision: 0
# Processed by: cddbd v1.5.1PL0 Copyright (c) Steve Scherf et al.
# Submitted via: CDex 1.51
#
DISCID=c10ce70d
DTITLE=大川栄作 - 出で湯橋 Disc 2
DYEAR=1994
DGENRE=Country
TTITLE0=さざんかの宿
TTITLE1=恋吹雪
TTITLE2=男って辛いよな
TTITLE3=あばれ舟唄
TTITLE4=舞酔（まよ）い雪
TTITLE5=裏町しぐれ
TTITLE6=雨の港
TTITLE7=あなたに生きる
TTITLE8=女のグラス
TTITLE9=路傍の花
TTITLE10=木枯紋次郎 （ナレーション 芥川隆行）
TTITLE11=筑後川エレジー
TTITLE12=目ン無い千鳥
EXTD=YEAR: 1994
EXTT0=
EXTT1=
EXTT2=
EXTT3=
EXTT4=
EXTT5=
EXTT6=
EXTT7=
EXTT8=
EXTT9=
EXTT10=
EXTT11=
EXTT12=
PLAYORDER=
